<svg width="1920" height="410" viewBox="0 0 1920 410" fill="none" xmlns="http://www.w3.org/2000/svg">
  <defs>
    <linearGradient id="paint0_linear" x1="0" y1="0" x2="1920" y2="410" gradientUnits="userSpaceOnUse">
      <stop stop-color="#1B5E20"/>
      <stop offset="1" stop-color="#0A2F10"/>
    </linearGradient>
    <radialGradient id="paint1_radial" cx="0" cy="0" r="1" gradientUnits="userSpaceOnUse" gradientTransform="translate(140 210) rotate(90) scale(40)">
      <stop stop-color="#455A64"/>
      <stop offset="1" stop-color="#000000"/>
    </radialGradient>
    
    <style>
      @keyframes pulse {
        0%, 100% { opacity: 1; }
        50% { opacity: 0; }
      }
      .fading-now {
        animation: pulse 2s infinite ease-in-out;
        will-change: opacity;
      }
      .main-text {
        font-family: "Segoe UI", Roboto, Helvetica, Arial, sans-serif;
      }
    </style>
  </defs>

  <rect width="1920" height="410" fill="url(#paint0_linear)"/>
  
  <path d="M1400 0L1920 0V410L1250 410L1400 0Z" fill="white" fill-opacity="0.03"/>
  <circle cx="1880" cy="380" r="180" stroke="white" stroke-opacity="0.05" stroke-width="50"/>
  
  <g transform="translate(100, 110)">
    <text class="main-text" font-weight="800" font-size="82">
      <tspan fill="white" x="0" y="0">RECYCLE &amp; EARN</tspan>
      <tspan class="fading-now" fill="#4DB6AC"> NOW</tspan>
    </text>
    
    <text fill="#A5D6A7" class="main-text" font-size="32" x="0" y="55">Turn your empty containers into instant rewards.</text>
    
    <rect y="110" width="1120" height="85" rx="42.5" fill="#43A047"/>
    <text fill="white" class="main-text" font-weight="bold" font-size="36" x="50" y="165">Scan your user ID or donate to one of the given charities</text>
  </g>
  
  <g transform="translate(1500, 40)">
    <rect width="260" height="330" rx="15" fill="#263238"/>
    <rect x="10" y="10" width="240" height="310" rx="10" fill="#37474F"/>
    
    <rect x="30" y="30" width="200" height="100" rx="5" fill="#000000"/>
    <rect x="40" y="40" width="180" height="80" rx="2" fill="#4DB6AC" fill-opacity="0.15"/>
    <text x="130" y="85" text-anchor="middle" fill="#4DB6AC" font-family="monospace" font-size="12" font-weight="bold">READY TO SCAN</text>
    
    <circle cx="130" cy="210" r="50" fill="#212121" stroke="#4DB6AC" stroke-width="4"/>
    <circle cx="130" cy="210" r="35" fill="url(#paint1_radial)"/>
    
    <rect x="70" y="290" width="120" height="10" rx="5" fill="#1B5E20"/>
  </g>

  <rect y="395" width="1920" height="15" fill="black" fill-opacity="0.15"/>
</svg>
