<svg width="1920" height="400" viewBox="0 0 1920 400" xmlns="http://www.w3.org/2000/svg">
  <defs>
    <linearGradient id="grad1" x1="0%" y1="0%" x2="100%" y2="0%">
      <stop offset="0%" style="stop-color:#2e7d32;stop-opacity:1" />
      <stop offset="100%" style="stop-color:#0288d1;stop-opacity:1" />
    </linearGradient>
  </defs>
  
  <rect width="100%" height="100%" fill="url(#grad1)" />
  
  <circle cx="1800" cy="400" r="300" fill="white" fill-opacity="0.1" />
  <circle cx="100" cy="0" r="200" fill="white" fill-opacity="0.05" />
  
  <path d="M250 150 L250 120 Q250 100 270 100 L330 100 Q350 100 350 120 L350 150 L370 150 L370 300 Q370 320 350 320 L250 320 Q230 320 230 300 L230 150 Z" fill="none" stroke="white" stroke-width="8" />
  <path d="M270 100 L270 80 L330 80 L330 100" fill="none" stroke="white" stroke-width="8" />
  
  <text x="450" y="180" font-family="Arial, sans-serif" font-size="72" font-weight="bold" fill="white">RECYCLE &amp; DONATE</text>
  <text x="450" y="250" font-family="Arial, sans-serif" font-size="36" fill="#e0f2f1">Help someone with your empty plastic bottles and cans.</text>
  
  <rect x="1450" y="150" width="350" height="100" rx="50" fill="white" />
  <text x="1625" y="212" font-family="Arial, sans-serif" font-size="32" font-weight="bold" fill="#2e7d32" text-anchor="middle">START HERE</text>
  
  <rect x="0" y="385" width="1920" height="15" fill="black" fill-opacity="0.2" />
</svg>