<svg width="1920" height="510" viewBox="0 0 1920 510" fill="none" xmlns="http://www.w3.org/2000/svg">
  <defs>
    <linearGradient id="paint0_linear" x1="0" y1="0" x2="1920" y2="510" gradientUnits="userSpaceOnUse">
      <stop stop-color="#1B5E20"/>
      <stop offset="1" stop-color="#0A2F10"/>
    </linearGradient>
    <radialGradient id="paint1_radial" cx="0" cy="0" r="1" gradientUnits="userSpaceOnUse" gradientTransform="translate(140 240) rotate(90) scale(40)">
      <stop stop-color="#455A64"/>
      <stop offset="1" stop-color="#000000"/>
    </radialGradient>
    
    <style>
      @keyframes pulse {
        0%, 100% { opacity: 1; }
        50% { opacity: 0; }
      }
      .fading-now {
        animation: pulse 2s infinite ease-in-out;
        will-change: opacity;
      }
      /* Ensuring standard fonts across platforms */
      .main-text {
        font-family: "Segoe UI", Roboto, Helvetica, Arial, sans-serif;
      }
    </style>
  </defs>

  <rect width="1920" height="510" fill="url(#paint0_linear)"/>
  
  <path d="M1400 0L1920 0V510L1250 510L1400 0Z" fill="white" fill-opacity="0.03"/>
  <circle cx="1850" cy="450" r="200" stroke="white" stroke-opacity="0.05" stroke-width="60"/>
  
  <g transform="translate(120, 180)">
    <text class="main-text" font-weight="800" font-size="82">
      <tspan fill="white" x="0" y="0">RECYCLE &amp; EARN</tspan>
      <tspan class="fading-now" fill="#4DB6AC">NOW</tspan>
    </text>
    
    <text fill="#A5D6A7" class="main-text" font-size="36" x="0" y="65">Turn your empty containers into instant rewards.</text>
    
    <rect y="120" width="1200" height="90" rx="35" fill="#43A047"/>
    <text fill="white" class="main-text" font-weight="bold" font-size="40" x="55" y="176">Scan your user ID or try scanning without collecting points</text>
  </g>
  
  <g transform="translate(1480, 70)">
    <rect width="280" height="380" rx="15" fill="#263238"/>
    <rect x="10" y="10" width="260" height="360" rx="10" fill="#37474F"/>
    <rect x="40" y="40" width="200" height="110" rx="5" fill="#000000"/>
    <rect x="50" y="50" width="180" height="90" rx="2" fill="#4DB6AC" fill-opacity="0.2"/>
    <text x="140" y="85" text-anchor="middle" fill="#4DB6AC" font-family="monospace" font-size="14">READY TO SCAN</text>
    <circle cx="140" cy="240" r="55" fill="#212121" stroke="#4DB6AC" stroke-width="4"/>
    <circle cx="140" cy="240" r="40" fill="url(#paint1_radial)"/>
    <rect x="80" y="325" width="120" height="12" rx="6" fill="#1B5E20"/>
  </g>

  <rect y="490" width="1920" height="20" fill="black" fill-opacity="0.1"/>
</svg>